<?xml version="1.0" encoding="utf-8"?>
<!-- Generator: Adobe Illustrator 22.0.1, SVG Export Plug-In . SVG Version: 6.00 Build 0)  -->
<svg version="1.1" id="Layer_1" xmlns="http://www.w3.org/2000/svg" xmlns:xlink="http://www.w3.org/1999/xlink" x="0px" y="0px"
	 viewBox="0 0 1440 640" style="enable-background:new 0 0 1440 640;" xml:space="preserve">
<style type="text/css">
	.st0{fill:url(#a_4_);}
	.st1{filter:url(#Adobe_OpacityMaskFilter);}
	.st2{fill:#FFFFFF;}
	.st3{mask:url(#d_1_);fill:url(#SVGID_1_);}
	.st4{filter:url(#Adobe_OpacityMaskFilter_1_);}
	.st5{mask:url(#d_2_);fill:url(#SVGID_2_);}
	.st6{fill:url(#SVGID_3_);}
	.st7{display:none;fill:#00C7FA;}
	.st8{display:none;fill:#FFFFFF;}
	.st9{display:none;fill:#0088FF;}
	.st10{display:none;fill:#55FBDC;}
	.st11{display:none;opacity:0.803;fill:#55FBDC;enable-background:new    ;}
	.st12{display:none;fill:url(#SVGID_4_);}
	.st13{display:none;fill:url(#SVGID_5_);}
	.st14{display:none;fill:url(#SVGID_6_);}
	.st15{display:none;fill:url(#SVGID_7_);}
	.st16{display:none;fill:url(#SVGID_8_);}
	.st17{display:none;fill:url(#SVGID_9_);}
</style>
<g>
	<g transform="translate(987 -100)">
		<g>
			
				<linearGradient id="a_4_" gradientUnits="userSpaceOnUse" x1="-887.4922" y1="1522.7827" x2="-887.8749" y2="1523.5771" gradientTransform="matrix(610.8549 0 0 -600.6792 542538.1875 915252.75)">
				<stop  offset="0" style="stop-color:#0088FF"/>
				<stop  offset="1" style="stop-color:#3525D3"/>
			</linearGradient>
			<path id="a_1_" class="st0" d="M558.9,465.9c-0.2,0.3-0.4,0.7-0.6,1C558.4,466.5,558.6,466.2,558.9,465.9L558.9,465.9z
				 M10.3,299.5C-16.4,321,16,366.4,26.5,397c0.1,0.3,0.2,0.7,0.4,1c0.5,1.5,1.1,3.1,1.6,4.6c2.7,7.6,5.8,15,9.1,22.3
				c8.1,17.7,91.8-158.8,29.7,51.3s90.9-78.3,104.8-65.3c13.9,13-37,133.9-20.6,144.2c17.1,10.6,33.8,18.6,49.6,24.7
				c2,0.8,3.9,1.6,5.9,2.3l5.8,2c3.8,1.3,7.5,2.7,11.3,3.6l6.1,1.8c2,0.6,4.1,1.2,6.1,1.7l12.2,2.9c16.4,3.4,32.5,5.3,48,6.1
				l11.6,0.3c1.8,0.1,3.6,0,5.4,0l5.2-0.1c6.8,0,13.3-0.6,20.2-1c1.7-0.1,3.4-0.3,5.1-0.5l5.1-0.6c3.4-0.4,6.8-0.7,10.2-1.4
				l10.2-1.7c3.4-0.6,6.8-1.5,10.2-2.2l5-1.1c1.7-0.4,3.4-0.9,5-1.4c3.4-0.9,6.8-1.9,10.1-2.8l9.8-3.3c1.6-0.6,3.2-1,4.8-1.7
				l4.6-1.8c23.8-9.3,40.4-19.1,52.7-26.9l4.3-2.8c1.4-0.9,2.8-1.8,4-2.7l7.2-5.1l3.3-2.3c1-0.8,2-1.5,2.9-2.3
				c1.9-1.5-164-100.6-162.4-101.9c13.1-10.3,193.7,75.7,205.8,62.1l4.5-5.2c0.7-0.9,1.5-1.7,2.3-2.6l2.2-2.7l3.8-4.8
				c1.3-1.6,2.6-3.2,3.7-4.8l6.8-9.5c2.2-3.2,4.2-6.4,6.2-9.6c7.9-12.7,14.7-25.1,19.8-37.1l2-4.4c0.7-1.4,1.2-3,1.8-4.4l3.4-8.6
				c0.3-0.7,0.6-1.4,0.8-2.1l0.7-2.1l1.4-4.1c0.9-2.7,1.8-5.4,2.6-8c1.5-5.3,2.9-10.3,4.1-15l3-13.4c1.4-8.4,2.8-15.6,3.3-21.6
				l0.9-7.8c0.2-2.3,0.3-4.2,0.3-5.8c0.1-3.1,0.2-4.8,0-4.9c-0.1-0.1-0.3,1.4-0.7,4.4l-0.6,5.5l-1.2,7.6l-0.7,4.5l-0.4,2.5
				c-0.1,0.8-0.3,1.7-0.5,2.6c-0.7,3.5-1.4,7.3-2.2,11.4c-0.9,4.1-2,8.4-3.1,13.1c-0.5,2.3-1.3,4.7-2,7.1l-2.2,7.5
				c-0.2,0.6-0.4,1.3-0.6,1.9c-0.2,0.6-0.4,1.3-0.7,1.9l-1.4,3.9c-0.9,2.7-1.9,5.4-2.9,8.2l-3.4,8.4l-1.8,4.3
				c-0.6,1.5-1.3,2.9-2,4.3l-4.1,8.9c-1.5,3-3.1,6-4.7,9l-2.4,4.6c-0.9,1.5-1.8,3.1-2.7,4.6c-0.9,1.5-1.8,3.1-2.7,4.6
				c-0.9,1.6-1.8,3.2-2.8,4.7l-2.4,3.6c29.4-46.4,46.5-101.4,46.5-160.3C609.3,134.1,475.2,0,309.8,0S236.4,117,10.3,299.5z"/>
		</g>
		<defs>
			<filter id="Adobe_OpacityMaskFilter" filterUnits="userSpaceOnUse" x="89.8" y="273.5" width="396.1" height="427.8">
				<feColorMatrix  type="matrix" values="1 0 0 0 0  0 1 0 0 0  0 0 1 0 0  0 0 0 1 0"/>
			</filter>
		</defs>
		<mask maskUnits="userSpaceOnUse" x="89.8" y="273.5" width="396.1" height="427.8" id="d_1_">
			<g class="st1">
				<path id="a_2_" class="st2" d="M-428.1,565.9c-0.2,0.3-0.4,0.7-0.6,1C-428.6,566.5-428.4,566.2-428.1,565.9L-428.1,565.9z
					 M-976.7,399.5c-26.7,21.5,5.7,66.9,16.3,97.5c0.1,0.3,0.2,0.7,0.4,1c0.5,1.5,1.1,3.1,1.6,4.6c2.7,7.6,5.8,15,9.1,22.3
					c8.1,17.7,91.8-158.8,29.7,51.3s90.9-78.3,104.8-65.3c13.9,13-37,133.9-20.6,144.2c17.1,10.6,33.8,18.6,49.6,24.7
					c2,0.8,3.9,1.6,5.9,2.3l5.8,2c3.8,1.3,7.5,2.7,11.3,3.6l6.1,1.8c2,0.6,4.1,1.2,6.1,1.7l12.2,2.9c16.4,3.4,32.5,5.3,48,6.1
					l11.6,0.3c1.8,0.1,3.6,0,5.4,0l5.2-0.1c6.8,0,13.3-0.6,20.2-1c1.7-0.1,3.4-0.3,5.1-0.5l5.1-0.6c3.4-0.4,6.8-0.7,10.2-1.4
					l10.2-1.7c3.4-0.6,6.8-1.5,10.2-2.2l5-1.1c1.7-0.4,3.4-0.9,5-1.4c3.4-0.9,6.8-1.9,10.1-2.8l9.8-3.3c1.6-0.6,3.2-1,4.8-1.7
					l4.6-1.8c23.8-9.3,40.4-19.1,52.7-26.9l4.3-2.8c1.4-0.9,2.8-1.8,4-2.7l7.2-5.1l3.3-2.3c1-0.8,2-1.5,2.9-2.3
					c1.9-1.5-164-100.6-162.4-101.9c13.1-10.3,193.7,75.7,205.8,62.1l4.5-5.2c0.7-0.9,1.5-1.7,2.3-2.6l2.2-2.7l3.8-4.8
					c1.3-1.6,2.6-3.2,3.7-4.8l6.8-9.5c2.2-3.2,4.2-6.4,6.2-9.6c7.9-12.7,14.7-25.1,19.8-37.1l2-4.4c0.7-1.4,1.2-3,1.8-4.4l3.4-8.6
					c0.3-0.7,0.6-1.4,0.8-2.1l0.7-2.1l1.4-4.1c0.9-2.7,1.8-5.4,2.6-8c1.5-5.3,2.9-10.3,4.1-15l3-13.4c1.4-8.4,2.8-15.6,3.3-21.6
					l0.9-7.8c0.2-2.3,0.3-4.2,0.3-5.8c0.1-3.1,0.2-4.8,0-4.9c-0.1-0.1-0.3,1.4-0.7,4.4l-0.6,5.5l-1.2,7.6l-0.7,4.5l-0.4,2.5
					c-0.1,0.8-0.3,1.7-0.5,2.6c-0.7,3.5-1.4,7.3-2.2,11.4c-0.9,4.1-2,8.4-3.1,13.1c-0.5,2.3-1.3,4.7-2,7.1l-2.2,7.5
					c-0.2,0.6-0.4,1.3-0.6,1.9c-0.2,0.6-0.4,1.3-0.7,1.9l-1.4,3.9c-0.9,2.7-1.9,5.4-2.9,8.2l-3.4,8.4l-1.8,4.3
					c-0.6,1.5-1.3,2.9-2,4.3l-4.1,8.9c-1.5,3-3.1,6-4.7,9l-2.4,4.6c-0.9,1.5-1.8,3.1-2.7,4.6c-0.9,1.5-1.8,3.1-2.7,4.6
					c-0.9,1.6-1.8,3.2-2.8,4.7l-2.4,3.6c29.4-46.4,46.5-101.4,46.5-160.3c0-165.4-134.1-299.5-299.5-299.5S-750.6,217-976.7,399.5z"
					/>
			</g>
		</mask>
		
			<linearGradient id="SVGID_1_" gradientUnits="userSpaceOnUse" x1="-888.2908" y1="1522.3505" x2="-887.3306" y2="1522.8472" gradientTransform="matrix(396.1153 0 0 -427.8453 351939.1875 651954.625)">
			<stop  offset="0" style="stop-color:#00C7FA"/>
			<stop  offset="1" style="stop-color:#00C7FA;stop-opacity:0"/>
		</linearGradient>
		<path class="st3" d="M92.1,502.1c0-0.4,0-0.8,0-1.2C92.1,501.4,92.1,501.8,92.1,502.1L92.1,502.1z M454.1,397.1
			c59.2,91.2,33.3,213.2-57.9,272.5C305,728.8,183,702.9,123.7,611.7c-21.1-32.5-31.4-69-31.8-105.1l0,2.9c0,1.2,0.1,2.4,0.1,3.6
			l0.2,3.5c0.1,1.2,0.1,2.3,0.2,3.5l0.3,3.4c0.2,2.3,0.4,4.5,0.7,6.7l0.9,6.4c0.2,1,0.3,2.1,0.5,3.1c0.2,1,0.4,2,0.6,3l1.1,5.8
			l1.3,5.5l0.7,2.7l0.3,1.3l0.4,1.3l1.5,4.9c0.5,1.6,0.9,3.2,1.5,4.6c1.1,3,2,5.8,2.9,8.3l2.9,7.1c0.2,0.5,0.4,1.1,0.6,1.6l0.7,1.5
			l1.3,2.7l2.1,4.6l1.6,3.3c0.9,1.8,1.3,2.7,1.2,2.7c-0.1,0-0.7-0.9-1.7-2.7c-0.5-0.9-1.2-2-1.9-3.3l-2.3-4.6
			c-1.8-3.5-3.7-7.9-5.9-13.1l-3.2-8.5c-1-3-2-6.3-3.1-9.8c-0.5-1.7-0.9-3.5-1.4-5.4l-0.7-2.8l-0.4-1.4c-0.1-0.5-0.2-1-0.3-1.4
			c-0.4-1.9-0.8-3.9-1.2-5.9c-0.2-1-0.4-2-0.6-3.1c-0.2-1-0.3-2.1-0.5-3.2c-1.4-8.5-2.1-17.7-2.3-27.6c0-2.5,0-5,0-7.5l0.3-7.7
			c0-1.3,0.2-2.7,0.3-4l0.4-4l0.2-2.3c0.1-0.8,0.2-1.5,0.3-2.3c0.2-1.5,0.4-3,0.7-4.5c1.8-11.9,132.3-29.1,135.8-39.5
			c0.4-1.3-126.6,3.5-126.1,2l0.8-2.3l1-2.4c0.7-1.7,1.4-3.5,2.2-5.4c0.4-1,0.8-1.9,1.3-2.9l1.4-3.1c4-8.7,9.6-20,19.4-33.7l1.9-2.6
			c0.6-0.9,1.3-1.7,2-2.6l4.2-5.3c1.5-1.7,3.1-3.5,4.6-5.2c0.8-0.9,1.5-1.7,2.3-2.6l2.4-2.4c1.6-1.6,3.2-3.3,4.8-4.8l5-4.6
			c1.6-1.6,3.4-3,5.1-4.4l2.6-2.1c0.9-0.7,1.7-1.5,2.6-2.1c3.7-2.7,7-5.4,10.8-7.8l2.8-1.9c1-0.6,1.9-1.3,3-1.9l6.5-4
			c8.9-5.1,18.5-9.8,28.7-13.8l7.8-2.8c1.3-0.5,2.6-0.8,4-1.3l4-1.2c2.4-0.8,4.9-1.4,7.5-2l3.9-1c1.3-0.3,2.7-0.6,4-0.8
			c10.9-2.3,23-3.9,36.2-4.2c12.7-0.2,27.9,84.7,40.3,86.9c12.3,2.2-6.6-211.6,34.4-73.5c41,138.1,24,10.8,34.8,17.7
			c4.5,2.8,8.8,5.9,13,9.1c0.9,0.6,1.7,1.3,2.6,2c0.2,0.1,0.4,0.3,0.6,0.4C427,362.2,441.9,378.3,454.1,397.1L454.1,397.1z"/>
		<defs>
			<filter id="Adobe_OpacityMaskFilter_1_" filterUnits="userSpaceOnUse" x="259.8" y="-118.5" width="396.1" height="405.6">
				<feColorMatrix  type="matrix" values="1 0 0 0 0  0 1 0 0 0  0 0 1 0 0  0 0 0 1 0"/>
			</filter>
		</defs>
		<mask maskUnits="userSpaceOnUse" x="259.8" y="-118.5" width="396.1" height="405.6" id="d_2_">
			<g class="st4">
				<path id="a_3_" class="st2" d="M-428.1,565.9c-0.2,0.3-0.4,0.7-0.6,1C-428.6,566.5-428.4,566.2-428.1,565.9L-428.1,565.9z
					 M-976.7,399.5c-26.7,21.5,5.7,66.9,16.3,97.5c0.1,0.3,0.2,0.7,0.4,1c0.5,1.5,1.1,3.1,1.6,4.6c2.7,7.6,5.8,15,9.1,22.3
					c8.1,17.7,91.8-158.8,29.7,51.3s90.9-78.3,104.8-65.3c13.9,13-37,133.9-20.6,144.2c17.1,10.6,33.8,18.6,49.6,24.7
					c2,0.8,3.9,1.6,5.9,2.3l5.8,2c3.8,1.3,7.5,2.7,11.3,3.6l6.1,1.8c2,0.6,4.1,1.2,6.1,1.7l12.2,2.9c16.4,3.4,32.5,5.3,48,6.1
					l11.6,0.3c1.8,0.1,3.6,0,5.4,0l5.2-0.1c6.8,0,13.3-0.6,20.2-1c1.7-0.1,3.4-0.3,5.1-0.5l5.1-0.6c3.4-0.4,6.8-0.7,10.2-1.4
					l10.2-1.7c3.4-0.6,6.8-1.5,10.2-2.2l5-1.1c1.7-0.4,3.4-0.9,5-1.4c3.4-0.9,6.8-1.9,10.1-2.8l9.8-3.3c1.6-0.6,3.2-1,4.8-1.7
					l4.6-1.8c23.8-9.3,40.4-19.1,52.7-26.9l4.3-2.8c1.4-0.9,2.8-1.8,4-2.7l7.2-5.1l3.3-2.3c1-0.8,2-1.5,2.9-2.3
					c1.9-1.5-164-100.6-162.4-101.9c13.1-10.3,193.7,75.7,205.8,62.1l4.5-5.2c0.7-0.9,1.5-1.7,2.3-2.6l2.2-2.7l3.8-4.8
					c1.3-1.6,2.6-3.2,3.7-4.8l6.8-9.5c2.2-3.2,4.2-6.4,6.2-9.6c7.9-12.7,14.7-25.1,19.8-37.1l2-4.4c0.7-1.4,1.2-3,1.8-4.4l3.4-8.6
					c0.3-0.7,0.6-1.4,0.8-2.1l0.7-2.1l1.4-4.1c0.9-2.7,1.8-5.4,2.6-8c1.5-5.3,2.9-10.3,4.1-15l3-13.4c1.4-8.4,2.8-15.6,3.3-21.6
					l0.9-7.8c0.2-2.3,0.3-4.2,0.3-5.8c0.1-3.1,0.2-4.8,0-4.9c-0.1-0.1-0.3,1.4-0.7,4.4l-0.6,5.5l-1.2,7.6l-0.7,4.5l-0.4,2.5
					c-0.1,0.8-0.3,1.7-0.5,2.6c-0.7,3.5-1.4,7.3-2.2,11.4c-0.9,4.1-2,8.4-3.1,13.1c-0.5,2.3-1.3,4.7-2,7.1l-2.2,7.5
					c-0.2,0.6-0.4,1.3-0.6,1.9c-0.2,0.6-0.4,1.3-0.7,1.9l-1.4,3.9c-0.9,2.7-1.9,5.4-2.9,8.2l-3.4,8.4l-1.8,4.3
					c-0.6,1.5-1.3,2.9-2,4.3l-4.1,8.9c-1.5,3-3.1,6-4.7,9l-2.4,4.6c-0.9,1.5-1.8,3.1-2.7,4.6c-0.9,1.5-1.8,3.1-2.7,4.6
					c-0.9,1.6-1.8,3.2-2.8,4.7l-2.4,3.6c29.4-46.4,46.5-101.4,46.5-160.3c0-165.4-134.1-299.5-299.5-299.5S-750.6,217-976.7,399.5z"
					/>
			</g>
		</mask>
		
			<linearGradient id="SVGID_2_" gradientUnits="userSpaceOnUse" x1="-887.352" y1="1522.8622" x2="-888.1675" y2="1522.1207" gradientTransform="matrix(396.1153 0 0 -405.6099 352109.2188 617653.6875)">
			<stop  offset="0" style="stop-color:#00C7FA"/>
			<stop  offset="1" style="stop-color:#00C7FA;stop-opacity:0.48"/>
		</linearGradient>
		<path class="st5" d="M262.1,110.1c0-0.4,0-0.8,0-1.2C262.1,109.4,262.1,109.8,262.1,110.1L262.1,110.1z M624.1,5.1
			c59.2,91.2,33.3,213.2-57.9,272.5C475,336.8,394.9,96.7,293.7,219.7c-25,30.4-31.4-69-31.8-105.1l0,2.9c0,1.2,0.1,2.4,0.1,3.6
			l0.2,3.5c0.1,1.2,0.1,2.3,0.2,3.5l0.3,3.4c0.2,2.3,0.4,4.5,0.6,6.6l0.9,6.4c0.2,1,0.3,2.1,0.5,3.1c0.2,1,0.4,2,0.6,3l1.1,5.8
			l1.3,5.5l0.7,2.7l0.3,1.3l0.4,1.3l1.5,4.9c0.5,1.6,0.9,3.2,1.5,4.6c1.1,3,2,5.8,3,8.3l2.9,7.1c0.2,0.5,0.4,1.1,0.6,1.6l0.7,1.5
			l1.3,2.7l2.1,4.6l1.6,3.3c0.9,1.8,1.3,2.7,1.2,2.7c-0.1,0-0.7-0.9-1.7-2.7c-0.5-0.9-1.2-2-1.9-3.3l-2.3-4.6
			c-1.8-3.5-3.7-7.9-5.9-13.1l-3.2-8.5c-1-3-2-6.3-3.1-9.8c-0.5-1.7-0.9-3.5-1.4-5.4l-0.7-2.8l-0.4-1.4c-0.1-0.5-0.2-1-0.3-1.4
			c-0.4-1.9-0.8-3.9-1.2-5.9c-0.2-1-0.5-2-0.6-3.1c-0.2-1-0.3-2.1-0.5-3.2c-1.4-8.5-2.1-17.7-2.4-27.6c0-2.5,0-5,0-7.5l0.3-7.7
			c0-1.3,0.2-2.7,0.3-4l0.4-4l0.2-2.3c0.1-0.8,0.2-1.5,0.3-2.3c0.2-1.5,0.4-3,0.6-4.5c1.8-11.9,132.3-29.1,135.8-39.5
			c0.4-1.3-126.6,3.5-126.1,2l0.8-2.3l1-2.4c0.7-1.7,1.4-3.5,2.2-5.4c0.4-1,0.8-1.9,1.3-2.9l1.4-3.1c4-8.7,9.6-20,19.4-33.7l1.9-2.6
			c0.6-0.9,1.3-1.7,2-2.6l4.2-5.3c1.5-1.7,3.1-3.5,4.6-5.2c0.8-0.9,1.5-1.7,2.3-2.6l2.4-2.4c1.6-1.6,3.2-3.3,4.8-4.8l5-4.6
			c1.6-1.6,3.4-3,5.1-4.4l2.6-2.1c0.9-0.7,1.7-1.5,2.6-2.1c3.7-2.7,7-5.4,10.8-7.8l2.8-1.9c1-0.6,1.9-1.3,3-1.9l6.5-4
			c8.9-5.1,18.5-9.8,28.7-13.8l7.8-2.8c1.3-0.5,2.6-0.8,4-1.3l4-1.2c2.4-0.8,4.9-1.4,7.5-2l3.9-1c1.3-0.3,2.7-0.6,4-0.8
			c10.9-2.3,23-3.9,36.2-4.2c12.7-0.2,27.9,84.7,40.3,86.9c12.3,2.2-6.6-211.6,34.4-73.5c41,138.1,24,10.8,34.8,17.7
			c4.5,2.8,8.8,5.9,13,9.1c0.9,0.6,1.7,1.3,2.6,2c0.2,0.1,0.4,0.3,0.6,0.4C597-29.8,611.9-13.7,624.1,5.1L624.1,5.1z"/>
	</g>
	
		<linearGradient id="SVGID_3_" gradientUnits="userSpaceOnUse" x1="98.8403" y1="1422.7062" x2="99.7057" y2="1422.2749" gradientTransform="matrix(424.9432 0 0 -397.0999 -41176.0547 564908.75)">
		<stop  offset="0" style="stop-color:#55FBDC"/>
		<stop  offset="1" style="stop-color:#00C7FA;stop-opacity:0.8"/>
	</linearGradient>
	<path class="st6" d="M921.4,195.4l6.6,3.6c3.4,1.9,2.8,2.5-0.5,0.8l-3.8-2c-1.2-0.7-2.5-1.3-3.7-2l-7.3-4.3
		c-2.4-1.5-4.7-3.1-7.1-4.6l-1.8-1.2l-1.7-1.2l-3.4-2.5c-9.1-6.7-17.6-14.3-25.4-22.5c-15.7-16.6-28.2-36.5-37.3-57.5
		c-9.1-21-14.5-43.6-15.9-66.5c-0.7-11.5-0.5-23,0.6-34.4c1.2-11.4,3.4-22.7,6.7-33.8c1.3-4.9,3.2-9.6,4.9-14.4
		c2-4.7,3.9-9.4,6.2-14l1.7-3.4c0.3-0.6,0.5-1.2,0.9-1.7l0.9-1.7l3.7-6.7c1.3-2.2,2.7-4.3,4-6.5l1-1.6c0.3-0.5,0.7-1.1,1-1.6
		l2.1-3.1l2.1-3.2c0.4-0.5,0.7-1.1,1.1-1.6l1.1-1.5l4.5-6.1c1.6-2,3.2-3.9,4.8-5.9c1.6-2,3.3-3.8,5-5.7c3.3-3.8,7-7.3,10.6-10.9
		l5.7-5.1l1.4-1.3l1.5-1.2l3-2.4c15.9-12.7,33.7-23,52.7-30.3c9.5-3.6,19.3-6.5,29.2-8.6c10-2.1,20.1-3.3,30.2-4l7.6-0.4l7.6,0
		l1.9,0c0.6,0,1.3,0.1,1.9,0.1l3.8,0.2l3.8,0.2c1.3,0.1,2.5,0.2,3.8,0.3l3.8,0.4c1.3,0.1,2.5,0.2,3.8,0.4l7.5,1.1
		c1.3,0.2,2.5,0.4,3.7,0.7l3.7,0.7c1.2,0.3,2.5,0.5,3.7,0.8l3.7,0.9l3.7,0.9l1.8,0.5l1.8,0.6l7.3,2.2c2.4,0.8,4.8,1.7,7.2,2.5
		c1.2,0.4,2.4,0.8,3.6,1.3l3.5,1.5l3.5,1.5l1.8,0.7l1.7,0.8l6.9,3.3c2.3,1.1,4.5,2.4,6.7,3.6c1.1,0.6,2.2,1.2,3.3,1.8l3.3,2l3.2,2
		l1.6,1c0.5,0.3,1,0.7,1.6,1.1l6.2,4.3l0.8,0.5l0.7,0.6l1.5,1.2l3,2.3c1,0.8,2,1.5,3,2.4l2.9,2.5l2.9,2.5l1.4,1.2l1.4,1.3l5.5,5.2
		c1.8,1.8,3.5,3.6,5.2,5.5l1.3,1.4l0.7,0.7l0.6,0.7l2.5,2.9c3.4,3.7,6.5,7.8,9.6,11.7l4.4,6.2c0.4,0.5,0.8,1,1.1,1.5l3.1,4.8
		l2.1,3.2l1.9,3.3l1.9,3.3l1,1.6l0.9,1.7l3.5,6.7l3.2,6.9c4.1,9.4,7.6,19.2,10.3,29.1c2.6,10,4.5,20.1,5.6,30.3l0.7,7.7l0.4,7.7
		c0,0.6,0.1,1.3,0.1,1.9l0,1.9l0,3.9c0,1.3,0,2.6,0,3.9l-0.2,3.9l-0.2,3.9c0,0.6,0,1.3-0.1,1.9l-0.2,1.9l-0.7,7.7l-1.1,7.7l-0.3,1.9
		l-0.4,1.9l-0.8,3.8c-2.1,10-4.9,19.9-8.7,29.5c-0.5,1.2-0.9,2.4-1.4,3.6l-1.5,3.5l-1.5,3.5l-0.8,1.8l-0.8,1.7l-3.4,6.9
		c-1.2,2.3-2.5,4.5-3.7,6.7c-5.1,8.8-10.7,17.2-17,24.8c-0.8,1-1.5,2-2.4,2.9l-2.5,2.8l-2.5,2.8c-0.4,0.5-0.8,0.9-1.2,1.4l-1.3,1.3
		l-5.2,5.4l-5.5,5.2c-1.7,1.7-3.7,3.3-5.5,4.9l-2.8,2.4l-0.7,0.6l-0.7,0.6l-1.5,1.1c-2,1.5-3.9,3.1-5.8,4.5l-6,4.3
		c-75.5-36.9-16.7,10.5-25.5,14.7c-8.9,4.2-18,7.8-27.4,10.8c-5.3,1.6-10.7,3.1-16.2,4.3c-43.4,10-90.5,5.4-133.3-16.4
		c-96.6-49.2-135.1-167.5-85.8-264.1c9-17.7,20.3-33.4,33.4-47c0.4-0.4,0.8-0.8,1.2-1.2l1.3-1.3l0.5-0.5c0.8-0.8,1.5-1.5,2.3-2.2
		l2.6-2.5l2.8-2.5l2.8-2.5l1.4-1.3c0.5-0.4,1-0.8,1.5-1.2l5.9-4.7l6.1-4.5c8.2-5.8,33.5,57.1,42.5,52.6c9-4.4,1.8-76.2,11.4-79.2
		l7.3-2.1c0.7-0.2,1.3-0.3,2-0.5c13.8-3.6,27.9-5.8,42.1-6.4c2.7-0.1,5.4-0.2,8.2-0.2c10.1,0,20.1,0.6,30.1,2.2l1.9,0.3
		c0.6,0.1,1.2,0.2,1.9,0.3l3.7,0.7c2.5,0.5,5,0.9,7.4,1.6c2.4,0.6,4.9,1.2,7.3,1.9l7.2,2.2l1.8,0.6c0.6,0.2,1.2,0.4,1.8,0.6l3.5,1.3
		l3.5,1.3c1.2,0.4,2.3,1,3.5,1.4c0.4,0.2,0.8,0.3,1.2,0.5c0.4,0.2,0.8,0.3,1.2,0.5c1.5,0.6,3.1,1.3,4.6,2l2.5,1.2
		c0.9,0.4,1.9,0.9,2.8,1.3l1.5,0.7l1.7,0.8l1.6,0.9l3.3,1.8l3.3,1.8c1.1,0.6,2.2,1.3,3.2,1.9c2.1,1.3,4.3,2.5,6.4,3.9l6.2,4.2l1.6,1
		l1.5,1.1l3,2.2l3,2.2c1,0.8,1.9,1.6,2.9,2.4l2.9,2.4l1.4,1.2l0.7,0.6l0.7,0.6l5.5,5.1c7.2,7,13.8,14.5,19.8,22.5
		c5.9,8.1,11.3,16.5,16.1,25.3l3.5,6.6c1.1,2.2,2.1,4.5,3.2,6.8c1.1,2.2,2,4.6,3,6.9l1.5,3.5c0.5,1.2,0.9,2.3,1.3,3.5l1.3,3.5
		c0.4,1.2,0.9,2.3,1.2,3.5l2.2,7.2c0.7,2.4,1.3,4.8,1.9,7.3c0.7,2.4,1.1,4.9,1.6,7.3l0.7,3.7l0.2,0.9l0.1,0.9l0.3,1.9l0.5,3.2
		c-1-8-2.5-15.9-4.5-23.7c-2.6-9.7-5.9-19.2-9.9-28.4l-3.2-6.8c-0.5-1.2-1.1-2.2-1.7-3.4l-1.7-3.3c-0.6-1.1-1.1-2.2-1.8-3.3
		l-1.9-3.3c-1.3-2.2-2.5-4.4-3.9-6.4c-5.3-8.5-11.3-16.6-17.8-24.2l-2.5-2.8l-1.2-1.4l-1.3-1.4l-5.2-5.4c-1.8-1.8-3.6-3.5-5.5-5.2
		c-1.8-1.8-3.7-3.3-5.7-5c-3.8-3.3-7.9-6.3-11.9-9.3l-6.3-4.2l-1.6-1.1c-0.5-0.4-1.1-0.7-1.6-1l-3.2-2l-3.2-2
		c-0.5-0.3-1.1-0.6-1.6-0.9l-1.7-0.9c-2.2-1.2-4.4-2.4-6.7-3.6c-4.6-2.2-9-4.4-13.7-6.3c-4.6-2.1-9.4-3.6-14.1-5.3l-7.2-2.2
		l-1.8-0.5c-0.6-0.2-1.2-0.3-1.8-0.5l-3.7-0.9l-3.7-0.9c-1.2-0.3-2.5-0.5-3.7-0.8l-3.7-0.7l-1.9-0.4l-0.9-0.2l-0.9-0.1l-7.5-1.1
		c-1.2-0.2-2.5-0.3-3.8-0.4l-3.8-0.4c-1.3-0.1-2.5-0.3-3.8-0.3l-3.8-0.2l-3.8-0.2c-0.6,0-1.3-0.1-1.9-0.1l-1.9,0l-7.6,0.1l-7.5,0.4
		c-10,0.8-20,2.2-29.8,4.3c-9.8,2.2-19.4,5.1-28.8,8.7l-7,2.8c-2.3,1-4.6,2.1-6.8,3.1c-2.3,1-4.5,2.2-6.7,3.4l-3.3,1.7
		c-1.1,0.6-2.2,1.3-3.3,1.9l-3.3,1.9c-1.1,0.6-2.2,1.2-3.2,1.9l-6.4,4.1c-0.5,0.3-1.1,0.7-1.6,1.1l-1.5,1.1l-3.1,2.2l-1.5,1.1
		c-0.5,0.4-1,0.7-1.5,1.1l-3,2.3c-4,3-7.8,6.4-11.6,9.7l-5.4,5.2c-0.4,0.4-0.9,0.9-1.3,1.3l-1.3,1.4l-2.6,2.8
		c-6.8,7.4-13,15.4-18.3,23.9c-0.7,1.1-1.4,2.1-2.1,3.1l-1.9,3.2l-1.9,3.2c-0.6,1.1-1.3,2.1-1.8,3.3c-1.2,2.2-2.3,4.4-3.5,6.6
		c-0.6,1.1-1.1,2.2-1.7,3.4l-1.6,3.4l-1.6,3.4L838-52l-1.5,3.5c-0.5,1.2-1,2.3-1.4,3.5l-2.6,7.1c-0.5,1.2-0.8,2.4-1.2,3.6l-1.1,3.6
		c-2.9,9.6-5.2,19.5-6.4,29.5c-0.4,2.5-0.6,5-0.8,7.5c-0.2,2.5-0.5,5-0.6,7.5c-0.1,2.5-0.2,5-0.3,7.5l0.1,7.5
		c0.3,10-29.5,138.1-27.8,148c1.8,9.9,160.1-235.2,163.3-225.7L835.2,94.9l2.9,7l0.7,1.7c0.2,0.6,0.5,1.1,0.8,1.7l3.2,6.8
		c0.6,1.1,1.2,2.2,1.7,3.3l1.8,3.3c0.6,1.1,1.2,2.2,1.8,3.3l3.8,6.5c2.7,4.2,5.4,8.4,8.5,12.4l2.2,3c0.7,1,1.6,2,2.3,2.9l2.4,2.9
		l1.2,1.5c0.4,0.5,0.8,1,1.2,1.4l5,5.6c0.8,1,1.7,1.8,2.6,2.7l2.6,2.7c0.9,0.9,1.7,1.8,2.6,2.7l2.8,2.5l2.8,2.5l1.4,1.3l1.4,1.2
		l5.8,4.8c2,1.5,4,3,6,4.5c2,1.5,4.1,2.9,6.1,4.3c2.1,1.4,4.1,2.9,6.3,4.1L921.4,195.4L921.4,195.4z"/>
	<path class="st7" d="M1216.8,163.5c0.6-0.4,1.3-0.8,2-1.1c0.7-0.3,1.5-0.5,2.3-0.5c0.1,0,0.1,0.3,0,0.4c-0.8,0.1-1.5,0.2-2.2,0.4
		c-0.7,0.2-1.4,0.6-2,1.1c-0.9,0.8-1.4,1.8-1.7,2.8c1.3-2.1,3.5-3.3,6-3.3c3.9,0,7,3.1,7,7c0,3.9-3.1,7-7,7c-1.2,0-2.3-0.3-3.3-0.8
		c0.4,0.4,0.9,0.7,1.4,0.9c1.3,0.5,2.8,0.6,4.3,0.3c1.5-0.3,2.8-1.2,4-2.2c0.6-0.5,1.1-1.2,1.4-1.9c0.3-0.7,0.5-1.5,0.8-2.3
		c0-0.1,0.3-0.1,0.3,0c-0.1,0.8-0.3,1.7-0.5,2.5c-0.3,0.8-0.6,1.6-1.2,2.3c-1.1,1.3-2.5,2.5-4.2,3c-1.7,0.4-3.5,0.4-5.1-0.2
		c-1.6-0.5-3.1-1.5-4.1-2.8c-1.1-1.2-1.9-2.8-2.1-4.4c-0.2-1.6,0.2-3.3,0.9-4.7C1214.2,165.3,1215.6,164.4,1216.8,163.5
		L1216.8,163.5z M1229.9,168.7c-0.2-0.6-0.1-1.3-0.1-2c0-0.7-0.1-1.5-0.5-2.1c-0.4-0.5-1-0.8-1.5-1.2c-0.6-0.3-1.1-0.6-1.4-1.2
		c-0.1-0.2,0.8-1.2,0.9-1c1,1,1.8,2.2,2.4,3.4c0.7,1.3,0.6,2.7,0.9,4C1230.6,168.6,1229.9,168.7,1229.9,168.7L1229.9,168.7z
		 M1236.2,166c0.8,3.1,0.5,6.4-0.6,9.3c-1.1,2.9-2.9,5.7-5.5,7.4c-2.6,1.7-5.8,2.2-8.7,2.1c-1.5-0.1-2.9-0.4-4.3-0.8
		c-1.4-0.5-2.6-1.2-3.8-2.1c-2.3-1.8-3.7-4.3-4.6-6.8c-0.5-1.3-0.7-2.7-0.7-4c0-1.3,0.2-2.6,0.5-3.9c0.3-1.3,0.7-2.6,1.3-3.9
		c0.6-1.2,1.4-2.5,2.5-3.4c2.1-1.8,4.9-2.9,7.6-3.3c0.1,0,0.1,0.4,0.1,0.4c-2,0.2-4.3,0.4-6,1.7c-1.7,1.2-2.8,3.1-3.7,4.9
		c-0.9,1.8-0.9,3.9-1,5.7c-0.1,2.5,0.5,5,1.7,7.1c0.6,1.1,1.2,2.2,2.1,3.2c0.8,1,1.8,2,3,2.5c1.2,0.6,2.5,0.9,3.9,1.1
		c1.3,0.1,2.7,0.1,4-0.1c1.4-0.2,2.7-0.7,3.8-1.4c1.2-0.7,2.2-1.6,3.3-2.5c1-0.9,2-1.9,2.8-3.1c0.8-1.2,1.4-2.6,1.6-4.1
		c0.4-2.9-0.2-6-1.6-8.6c-1.3-2.5-3.2-4.5-5.6-5.8c-1-0.6-2.3-0.8-3.5-0.9c-1.2-0.1-2.3-0.2-3.4-0.6c-0.4-0.1-0.1-1.1,0.3-1
		c1.5,0.3,3,0.7,4.5,1.1c1.5,0.5,2.9,1.1,4.2,2c1.3,0.9,2.6,2.1,3.6,3.4C1234.9,162.8,1235.8,164.3,1236.2,166L1236.2,166z"/>
	<path class="st8" d="M1288.7,397c0.4-0.3,0.8-0.5,1.3-0.7c0.5-0.2,0.9-0.3,1.5-0.3c0.1,0,0.1,0.2,0,0.2c-0.5,0-0.9,0.1-1.4,0.3
		c-0.4,0.2-0.9,0.4-1.2,0.7c-0.6,0.5-0.9,1.1-1.1,1.8c0.8-1.3,2.2-2.1,3.8-2.1c2.5,0,4.4,2,4.4,4.4c0,2.5-2,4.4-4.4,4.4
		c-0.7,0-1.5-0.2-2.1-0.5c0.3,0.2,0.6,0.4,0.9,0.6c0.8,0.3,1.8,0.4,2.7,0.2c0.9-0.2,1.8-0.7,2.5-1.4c0.4-0.3,0.7-0.8,0.9-1.2
		c0.2-0.5,0.3-1,0.5-1.5c0-0.1,0.2,0,0.2,0c-0.1,0.5-0.2,1.1-0.3,1.6c-0.2,0.5-0.4,1-0.8,1.5c-0.7,0.8-1.6,1.6-2.7,1.9
		c-1.1,0.3-2.2,0.2-3.3-0.1c-1-0.3-1.9-1-2.6-1.8c-0.7-0.8-1.2-1.8-1.3-2.8c-0.2-1,0.1-2.1,0.6-3
		C1287,398.2,1287.9,397.6,1288.7,397L1288.7,397z M1297.5,400c-0.1-0.4-0.1-0.9-0.1-1.4c0-0.5-0.1-1-0.4-1.4
		c-0.3-0.3-0.7-0.6-1.1-0.8c-0.4-0.2-0.8-0.4-1-0.8c-0.1-0.1,0.5-0.8,0.7-0.7c0.7,0.7,1.2,1.4,1.7,2.3c0.5,0.8,0.5,1.8,0.6,2.6
		C1298,399.9,1297.5,400,1297.5,400L1297.5,400z M1301.7,398.4c0.6,2.1,0.3,4.3-0.4,6.2c-0.7,2-1.9,3.8-3.7,5
		c-1.7,1.2-3.9,1.5-5.8,1.4c-1,0-1.9-0.2-2.8-0.6c-0.9-0.3-1.8-0.8-2.5-1.4c-1.5-1.2-2.4-2.9-3-4.6c-0.3-0.9-0.4-1.8-0.4-2.7
		c0-0.9,0.1-1.8,0.3-2.6c0.2-0.9,0.5-1.8,0.8-2.6c0.4-0.8,0.9-1.6,1.6-2.3c1.4-1.2,3.2-1.9,5.1-2.2c0.1,0,0.1,0.3,0,0.3
		c-1.3,0.2-2.8,0.3-4,1.1c-1.2,0.8-1.9,2.1-2.5,3.3c-0.6,1.2-0.6,2.6-0.6,3.8c-0.1,1.7,0.3,3.4,1.2,4.8c0.4,0.7,0.8,1.5,1.4,2.1
		c0.5,0.7,1.2,1.3,2,1.7c0.8,0.4,1.7,0.6,2.6,0.7c0.9,0.1,1.8,0,2.7-0.1c0.9-0.1,1.8-0.5,2.5-1c0.8-0.5,1.5-1.1,2.2-1.7
		c0.7-0.6,1.3-1.3,1.9-2.1c0.5-0.8,0.9-1.7,1.1-2.7c0.3-2-0.1-4-1-5.8c-0.8-1.6-2.1-3-3.7-3.9c-0.7-0.4-1.5-0.5-2.3-0.6
		c-0.8-0.1-1.5-0.1-2.3-0.4c-0.2-0.1-0.1-0.7,0.2-0.7c1,0.2,2,0.4,3,0.8c1,0.3,1.9,0.7,2.8,1.3c0.9,0.6,1.7,1.4,2.4,2.3
		C1300.8,396.3,1301.4,397.3,1301.7,398.4L1301.7,398.4z"/>
	<path class="st9" d="M923.6,262.7c0.1,0.7,0.2,1.4,0.2,2.1c0,0.7-0.1,1.4-0.4,2.1c0,0.1-0.3,0-0.3-0.1c0.2-0.7,0.4-1.3,0.4-2
		c0-0.7,0-1.4-0.2-2c-0.3-1-1-1.8-1.8-2.5c1.3,1.8,1.6,4.2,0.7,6.3c-1.4,3.3-5.2,4.8-8.5,3.4c0,0,0,0,0,0c-3.3-1.4-4.8-5.2-3.4-8.5
		c0.4-1,1.1-1.9,1.9-2.5c-0.5,0.2-0.9,0.5-1.3,0.9c-0.9,1-1.5,2.2-1.8,3.5c-0.3,1.4,0,2.8,0.4,4.2c0.2,0.7,0.7,1.3,1.2,1.9
		c0.5,0.5,1.1,1,1.7,1.5c0.1,0.1,0,0.3-0.1,0.2c-0.7-0.4-1.3-0.8-1.9-1.3c-0.6-0.5-1.2-1.1-1.5-1.8c-0.7-1.4-1.2-3-1-4.7
		c0.2-1.6,0.9-3.1,2-4.3c1-1.2,2.4-2,3.9-2.5c1.4-0.5,3-0.6,4.5-0.2c1.5,0.4,2.7,1.4,3.7,2.4C923,259.9,923.3,261.4,923.6,262.7
		L923.6,262.7z M914.3,272.4c0.6,0.1,1.2,0.4,1.8,0.6c0.6,0.3,1.3,0.5,2,0.3c0.6-0.1,1.1-0.5,1.5-0.9c0.5-0.4,0.9-0.7,1.5-0.8
		c0.2,0,0.7,1.1,0.5,1.2c-1.2,0.5-2.5,0.7-3.8,0.8c-1.3,0.1-2.5-0.4-3.7-0.7C914.1,273,914.2,272.4,914.3,272.4L914.3,272.4z
		 M914.8,278.4c-3-0.4-5.7-1.9-7.8-4c-2.1-2-3.8-4.6-4.4-7.5c-0.5-2.9,0.2-5.9,1.4-8.3c0.6-1.2,1.4-2.4,2.3-3.4c0.9-1,2-1.9,3.2-2.5
		c2.4-1.3,5.1-1.6,7.6-1.4c1.3,0.1,2.5,0.4,3.7,0.9c1.2,0.5,2.2,1.1,3.2,1.9c1,0.8,2,1.6,2.9,2.5c0.9,1,1.6,2.1,2,3.4
		c0.8,2.5,0.7,5.3,0,7.8c0,0.1-0.4-0.1-0.4-0.1c0.5-1.8,1.2-3.8,0.7-5.8c-0.4-2-1.7-3.6-2.8-5c-1.2-1.5-3-2.2-4.6-2.9
		c-2.1-1-4.5-1.4-6.8-1.1c-1.1,0.2-2.3,0.3-3.5,0.6c-1.2,0.3-2.4,0.8-3.3,1.7c-1,0.8-1.7,1.9-2.4,3c-0.6,1.1-1,2.3-1.4,3.5
		c-0.3,1.2-0.3,2.6-0.2,3.8c0.2,1.3,0.5,2.5,1,3.7c0.4,1.2,0.9,2.4,1.7,3.6c0.7,1.1,1.7,2.2,2.9,2.9c2.4,1.4,5.2,2,8,1.8
		c2.6-0.2,5.1-1.1,7.1-2.7c0.9-0.7,1.5-1.7,2.1-2.7c0.6-1,1-1.9,1.8-2.8c0.2-0.3,1,0.3,0.8,0.6c-0.8,1.2-1.7,2.4-2.6,3.5
		c-0.9,1.1-2,2.1-3.3,2.9c-1.3,0.8-2.7,1.5-4.2,1.9C918,278.5,916.4,278.7,914.8,278.4L914.8,278.4z"/>
	<path class="st10" d="M1373.1,547.3c0.1,0.5,0.1,1,0.1,1.6c0,0.5-0.1,1.1-0.3,1.6c0,0.1-0.2,0-0.2-0.1c0.2-0.5,0.3-1,0.3-1.5
		c0-0.5,0-1-0.1-1.5c-0.2-0.8-0.7-1.3-1.2-1.8c0.9,1.4,1.1,3.1,0.4,4.6c-1,2.4-3.8,3.6-6.1,2.6s-3.4-3.8-2.4-6.2
		c0.3-0.7,0.8-1.4,1.4-1.9c-0.3,0.2-0.7,0.4-0.9,0.7c-0.6,0.7-1.1,1.6-1.3,2.6c-0.2,1,0,2.1,0.3,3.1c0.2,0.5,0.5,1,0.8,1.4
		c0.4,0.4,0.8,0.7,1.2,1.1c0.1,0,0,0.2-0.1,0.2c-0.5-0.3-0.9-0.6-1.4-1c-0.4-0.4-0.8-0.8-1.1-1.3c-0.5-1-0.9-2.2-0.7-3.4
		c0.2-1.2,0.7-2.3,1.5-3.2c0.7-0.9,1.7-1.5,2.8-1.9c1-0.4,2.2-0.5,3.2-0.2c1.1,0.3,1.9,1,2.6,1.8
		C1372.7,545.2,1372.9,546.3,1373.1,547.3L1373.1,547.3z M1366.3,554.4c0.4,0,0.8,0.3,1.3,0.5c0.4,0.2,1,0.3,1.4,0.2
		c0.4-0.1,0.8-0.4,1.1-0.7c0.3-0.3,0.7-0.5,1.1-0.6c0.1,0,0.5,0.8,0.4,0.9c-0.9,0.3-1.8,0.6-2.7,0.7c-1,0.1-1.8-0.3-2.7-0.4
		C1366.2,554.9,1366.3,554.4,1366.3,554.4z M1366.6,558.9c-2.2-0.3-4.1-1.4-5.6-2.8c-1.5-1.5-2.7-3.3-3.1-5.5
		c-0.3-2.1,0.2-4.3,1.1-6.2c0.4-0.9,1-1.8,1.7-2.5c0.7-0.7,1.5-1.4,2.3-1.9c1.7-1,3.7-1.2,5.5-1.1c0.9,0,1.8,0.3,2.6,0.6
		c0.8,0.3,1.6,0.8,2.3,1.4c0.7,0.5,1.4,1.1,2,1.8c0.6,0.7,1.1,1.5,1.4,2.5c0.6,1.9,0.5,3.9-0.1,5.8c0,0.1-0.3,0-0.3-0.1
		c0.4-1.3,0.9-2.8,0.6-4.3c-0.3-1.4-1.2-2.6-2-3.7c-0.9-1.1-2.2-1.6-3.3-2.1c-1.5-0.7-3.2-1-4.9-0.8c-0.8,0.1-1.7,0.2-2.5,0.5
		c-0.8,0.3-1.7,0.6-2.4,1.3c-0.7,0.6-1.3,1.4-1.7,2.2c-0.4,0.8-0.8,1.7-1,2.6c-0.3,0.9-0.3,1.9-0.2,2.8c0.1,0.9,0.4,1.8,0.7,2.7
		c0.3,0.9,0.6,1.8,1.2,2.6c0.5,0.8,1.2,1.6,2.1,2.1c1.7,1,3.7,1.4,5.8,1.3c1.9-0.2,3.7-0.9,5.1-2.1c0.6-0.5,1.1-1.3,1.5-2
		c0.4-0.7,0.7-1.4,1.3-2.1c0.2-0.2,0.7,0.2,0.6,0.4c-0.6,0.9-1.2,1.8-1.9,2.6c-0.7,0.8-1.5,1.6-2.4,2.2c-1,0.6-2,1.1-3.1,1.4
		C1368.9,558.9,1367.8,559.1,1366.6,558.9L1366.6,558.9z"/>
	<path class="st11" d="M1289.2,166.9c0.3-0.2,0.7-0.4,1-0.6c0.4-0.1,0.8-0.3,1.2-0.3c0.1,0,0.1,0.2,0,0.2c-0.4,0-0.8,0.1-1.2,0.2
		c-0.4,0.1-0.7,0.3-1,0.6c-0.5,0.4-0.7,0.9-0.9,1.5c0.7-1.1,1.8-1.7,3.1-1.7c2,0,3.6,1.6,3.6,3.6c0,0,0,0,0,0c0,2-1.6,3.6-3.6,3.6
		c-0.6,0-1.2-0.2-1.7-0.4c0.2,0.2,0.5,0.4,0.7,0.5c0.7,0.3,1.5,0.3,2.2,0.2c0.8-0.1,1.4-0.6,2.1-1.1c0.3-0.3,0.5-0.6,0.7-1
		c0.2-0.4,0.3-0.8,0.4-1.2c0,0,0.2,0,0.1,0c-0.1,0.4-0.1,0.9-0.3,1.3c-0.1,0.4-0.3,0.8-0.6,1.2c-0.6,0.7-1.3,1.3-2.2,1.6
		c-0.9,0.2-1.8,0.2-2.7-0.1c-0.8-0.3-1.6-0.8-2.1-1.5c-0.6-0.6-1-1.4-1.1-2.3c-0.1-0.9,0.1-1.7,0.5-2.4
		C1287.8,167.8,1288.5,167.3,1289.2,166.9L1289.2,166.9z M1295.7,169c-0.1-0.3-0.1-0.7-0.1-1.1c0-0.4,0-0.8-0.2-1.1
		c-0.2-0.3-0.4-0.4-0.7-0.6c-0.3-0.2-0.5-0.3-0.7-0.6c-0.1-0.1,0.4-0.6,0.4-0.6c0.5,0.6,0.8,1.2,1.1,1.8c0.3,0.7,0.3,1.4,0.4,2.1
		C1296,168.9,1295.7,169,1295.7,169z M1299.8,167.9c0.4,1.7,0.3,3.4-0.3,5c-0.6,1.6-1.5,3-2.9,4c-1.4,0.9-3.1,1.2-4.6,1.1
		c-0.8,0-1.5-0.2-2.3-0.5c-0.7-0.3-1.4-0.6-2-1.1c-1.2-1-1.9-2.3-2.4-3.7c-0.2-0.7-0.3-1.4-0.3-2.1c0-0.7,0.1-1.4,0.3-2.1
		c0.2-0.7,0.4-1.4,0.7-2.1c0.3-0.7,0.7-1.3,1.3-1.8c1.1-1,2.5-1.6,4-1.8c0,0,0.1,0.2,0,0.2c-1,0.1-2.2,0.2-3.1,0.9
		c-0.9,0.7-1.5,1.7-1.9,2.6c-0.5,1-0.5,2.1-0.5,3.1c-0.1,1.3,0.2,2.7,0.9,3.8c0.3,0.6,0.6,1.2,1.1,1.7c0.4,0.5,0.9,1.1,1.6,1.4
		c0.6,0.3,1.3,0.5,2,0.6c0.7,0.1,1.4,0,2.1-0.1c0.7-0.1,1.4-0.4,2-0.8c0.6-0.4,1.2-0.8,1.7-1.3c0.5-0.5,1-1,1.5-1.7
		c0.4-0.6,0.7-1.4,0.9-2.2c0.2-1.6-0.1-3.2-0.8-4.6c-0.7-1.3-1.7-2.4-2.9-3.1c-0.5-0.3-1.2-0.4-1.8-0.5c-0.6-0.1-1.2-0.1-1.8-0.3
		c-0.2-0.1-0.1-0.6,0.1-0.5c0.8,0.2,1.6,0.4,2.4,0.6c0.8,0.2,1.5,0.6,2.2,1.1c0.7,0.5,1.3,1.1,1.9,1.8
		C1299.1,166.2,1299.5,167,1299.8,167.9L1299.8,167.9z"/>
	
		<linearGradient id="SVGID_4_" gradientUnits="userSpaceOnUse" x1="93.5816" y1="1435.6127" x2="93.5816" y2="1434.6127" gradientTransform="matrix(-24.1711 -124.3496 -22.8081 4.4334 35948.1055 5683.7427)">
		<stop  offset="0" style="stop-color:#0088FF"/>
		<stop  offset="1" style="stop-color:#00C7FA"/>
	</linearGradient>
	<path class="st12" d="M968.9,443.5c1.8,7,3.9,14,6.3,20.4c0.7,2,1.4,3.8,2.2,5.5c-12.8-17.5-23.3-36.6-31.3-56.7
		c-2-5.4-4.1-10.7-5.7-16.2l-1.3-4.1l-0.6-2l-0.1-0.3c-0.1-1.5-0.3-3.7-0.6-6.6l-0.3-3.3c-0.1-1.2-0.2-2.4-0.3-3.7l-0.4-8.5
		l-0.1-2.3c0-0.8,0-1.6,0-2.4l0-5c0-1.7,0-3.4,0-5.2l0.2-4.6C940.9,382.2,952,414.6,968.9,443.5z"/>
	
		<linearGradient id="SVGID_5_" gradientUnits="userSpaceOnUse" x1="92.6918" y1="1425.4263" x2="92.6918" y2="1426.387" gradientTransform="matrix(-21.0121 -108.0978 -174.5146 33.9222 251644.6406 -37965.1094)">
		<stop  offset="0" style="stop-color:#55FBDC;stop-opacity:0.32"/>
		<stop  offset="1" style="stop-color:#55FBDC"/>
	</linearGradient>
	<path class="st13" d="M935.6,313.3c-16.9,6-33.2,13.7-48.5,22.9c-15.3,9.3-29.7,20.1-42.8,32.3c-26.3,24.4-47.5,54.1-62.1,86.8"/>
	
		<linearGradient id="SVGID_6_" gradientUnits="userSpaceOnUse" x1="91.2404" y1="1430.1516" x2="91.2404" y2="1429.1516" gradientTransform="matrix(-17.3197 -89.1023 -46.9866 9.1333 69528.5234 -4525.7056)">
		<stop  offset="0" style="stop-color:#0088FF"/>
		<stop  offset="1" style="stop-color:#00C7FA"/>
	</linearGradient>
	<path class="st14" d="M771.2,379.6c1.3-2.2,2.5-4.6,4.1-7.1c3.7-6.2,8.3-12.9,13.4-19.7c-16.4,29.9-26.7,63.3-29.7,98.2"/>
	
		<linearGradient id="SVGID_7_" gradientUnits="userSpaceOnUse" x1="93.0863" y1="1429.0132" x2="93.0863" y2="1428.0231" gradientTransform="matrix(-22.3044 -114.7463 -60.3151 11.7241 89550.0313 -5490.5361)">
		<stop  offset="0" style="stop-color:#00C7FA"/>
		<stop  offset="1" style="stop-color:#00C7FA;stop-opacity:0.24"/>
	</linearGradient>
	<path class="st15" d="M1302.2,611.1c-2.9,6.8-5.8,15-7.5,23.9c-0.3,1.4-0.6,2.9-0.8,4.3c-0.6-28.2,3.4-56.4,11.8-83.3
		c0.5-0.8,1-1.8,1.7-3c0.6-1.1,1.9-3.8,3.7-7.4c0.2-0.5,0.5-0.9,0.7-1.4l0.8-1.5l1.8-3.2c1.3-2.2,2.6-4.6,4.1-7.1
		c3.7-6.2,8.3-12.9,13.4-19.7C1315.5,542.8,1305.2,576.2,1302.2,611.1"/>
	
		<linearGradient id="SVGID_8_" gradientUnits="userSpaceOnUse" x1="99.0598" y1="1422.1498" x2="99.2234" y2="1421.181" gradientTransform="matrix(272.8239 0 0 -275.9782 -26195.5664 392431.9063)">
		<stop  offset="0" style="stop-color:#FFFFFF"/>
		<stop  offset="1" style="stop-color:#55FBDC;stop-opacity:0.32"/>
	</linearGradient>
	<path class="st16" d="M913.4-40.3c-6.1-2.9-12.3-5.3-18.6-7.4c-1.6-0.5-3.2-0.9-4.8-1.4c-0.8-0.2-1.6-0.5-2.4-0.7l-2.4-0.6
		l-2.4-0.6c-0.8-0.2-1.6-0.4-2.4-0.5l-4.8-0.9l-1.2-0.2l-1.3-0.2l-2.5-0.3c-1.7-0.2-3.3-0.5-5-0.5l-5-0.4l-5-0.1
		c-0.8,0-1.7-0.1-2.5-0.1l-2.5,0.1l-2.5,0.1c-0.8,0-1.7,0-2.5,0.1l-5,0.4l-1.3,0.1l-1.3,0.2l-2.5,0.3l-2.5,0.3
		c-0.8,0.1-1.7,0.3-2.5,0.4l-5,0.9c-3.3,0.8-6.6,1.4-9.8,2.4c-3.3,0.8-6.4,2-9.6,3c-1.6,0.6-3.1,1.2-4.7,1.8c-1.6,0.6-3.1,1.3-4.6,2
		c-3.1,1.3-6.1,2.9-9.1,4.4c-2.9,1.7-5.9,3.3-8.7,5.1c-2.9,1.8-5.6,3.8-8.3,5.7c-2.6,2.1-5.3,4.1-7.8,6.3c-1.3,1.1-2.6,2.2-3.8,3.4
		c-1.2,1.2-2.4,2.3-3.6,3.5l-3.5,3.6L751-9.1l-0.8,1l-1.7,1.9l-1.7,1.9c-0.5,0.6-1,1.3-1.6,2c-1,1.3-2.1,2.6-3.1,4l-2.9,4.1
		c-0.5,0.7-1,1.4-1.4,2.1l-1.4,2.1l-1.3,2.1c-0.4,0.7-0.8,1.4-1.3,2.1c-0.8,1.4-1.7,2.9-2.5,4.3l-2.3,4.4c-0.2,0.4-0.4,0.7-0.6,1.1
		l-0.5,1.1l-1,2.3l-1,2.3c-0.3,0.8-0.6,1.5-0.9,2.3c-0.6,1.5-1.2,3.1-1.8,4.6l-1.6,4.7l-0.4,1.2c-0.1,0.4-0.2,0.8-0.3,1.2l-0.7,2.4
		c-1,3.2-1.6,6.4-2.4,9.7l-0.9,4.9c-0.1,0.8-0.3,1.6-0.4,2.4l-0.3,2.5l-0.3,2.5c-0.1,0.8-0.2,1.6-0.3,2.5l-0.4,4.9l-0.1,1.2l0,1.2
		l-0.1,2.5c0,1.7-0.1,3.3-0.1,5l0.1,5c0.1,1.6,0.2,3.3,0.3,4.9l0.2,2.5l0.3,2.5c0.2,1.6,0.4,3.3,0.6,4.9c0.6,3.2,1,6.5,1.8,9.7
		c0.6,3.2,1.6,6.4,2.4,9.6c0.5,1.6,1,3.1,1.5,4.7c0.3,0.8,0.5,1.6,0.8,2.3l0.9,2.3l0.9,2.3c0.3,0.8,0.6,1.5,0.9,2.3l2,4.5
		c0.3,0.8,0.7,1.5,1.1,2.2l1.1,2.2l1.1,2.2c0.4,0.7,0.8,1.4,1.2,2.2c0.8,1.4,1.6,2.9,2.5,4.3l2.7,4.2c3.9,5.9,8.3,11.5,13,16.7
		c4.8,5.2,10,10.1,15.5,14.5l4.2,3.3l4.4,3.1l1.1,0.8l1.1,0.7l2.2,1.4l2.2,1.4l2.3,1.3l2.3,1.3l1.2,0.7l1.2,0.6l4.7,2.4
		c3.2,1.5,6.4,3,9.8,4.2c6.6,2.6,13.4,4.7,20.3,6.1c0.9,0.2,1.7,0.4,2.6,0.6l2.6,0.5l2.6,0.5l1.3,0.2l1.3,0.2l5.3,0.7
		c1.8,0.2,3.5,0.3,5.3,0.4c0.9,0,1.8,0.2,2.7,0.2l2.7,0.1l2.7,0.1c0.4,0,0.9,0,1.3,0l1.3,0l5.3-0.1c1.8-0.1,3.5-0.3,5.3-0.4
		c0.9-0.1,1.8-0.1,2.6-0.2l2.6-0.3l2.6-0.3c0.4-0.1,0.9-0.1,1.3-0.2l1.3-0.2l5.2-0.9l5.2-1.1c0.6-0.1,1.2-0.3,1.8-0.4
		c0.5-0.1,1-0.3,1.4-0.5c0.8-0.3,1.4-0.5,1.6-0.6c0.5-0.3-0.4-0.2-3.1,0.6l-4.9,1.1c-0.8,0.2-1.6,0.4-2.5,0.5l-2.5,0.4l-2.5,0.4
		l-1.2,0.2l-1.3,0.2c-1.7,0.2-3.3,0.4-5,0.6c-0.8,0.1-1.7,0.1-2.5,0.2L863,221l-2.5,0.2l-2.5,0.1c-1.7,0-3.4,0.1-5.1,0.1l-5.1-0.1
		c-6.8-0.3-13.5-1-20.2-2.3c-6.6-1.3-13.2-2.9-19.6-5.2c-6.3-2.2-12.6-4.8-18.5-8c-5.9-3.1-11.7-6.6-17.1-10.6
		c-10.9-7.9-20.5-17.4-28.6-28c-7.9-10.4-14.3-21.9-19-34.1c-0.3-0.8-0.6-1.5-0.9-2.3l-0.8-2.3l-0.8-2.3c-0.3-0.8-0.5-1.5-0.7-2.3
		l-1.3-4.7c-0.2-0.8-0.4-1.6-0.6-2.4l-0.5-2.4l-0.5-2.4c-0.2-0.8-0.3-1.6-0.4-2.4l-0.8-4.8l-0.6-4.8c-0.1-0.8-0.2-1.6-0.3-2.4
		l-0.2-2.4c-0.6-6.5-0.5-13-0.1-19.4l0.4-4.8c0.1-0.8,0.2-1.6,0.3-2.4l0.3-2.4l0.3-2.4c0.1-0.8,0.3-1.6,0.4-2.4l0.9-4.8l1.1-4.7
		c0.2-0.8,0.4-1.6,0.6-2.3l0.7-2.3l0.7-2.3c0.2-0.8,0.4-1.6,0.7-2.3l1.6-4.6c0.3-0.8,0.6-1.5,0.9-2.3l0.9-2.2l0.9-2.2
		c0.3-0.7,0.7-1.5,1-2.2c0.7-1.5,1.3-2.9,2-4.4l2.2-4.3c0.7-1.5,1.6-2.9,2.4-4.3l1.3-2.2c0.4-0.7,0.9-1.4,1.3-2.1
		c0.9-1.4,1.8-2.8,2.7-4.2l2.9-4.1l0.7-1l0.8-1l1.5-2l1.5-2c0.5-0.7,1.1-1.3,1.6-1.9c1.1-1.3,2.2-2.5,3.3-3.8l3.4-3.6
		c4.7-4.7,9.7-9.2,15-13.2c5.3-4,10.9-7.6,16.8-10.8c5.9-3.1,11.9-5.9,18.2-8.2c6.3-2.2,12.7-4.1,19.2-5.5c1.6-0.3,3.3-0.6,4.9-0.9
		l2.5-0.4l2.5-0.3c1.7-0.2,3.3-0.4,5-0.6l5-0.4c6.6-0.3,13.3-0.4,19.9,0.3c6.9,0.6,13.8,1.6,20.5,3.4c0.8,0.2,1.7,0.4,2.5,0.6
		l2.5,0.7c1.7,0.5,3.3,0.9,5,1.5l4.9,1.7l4.8,2c6.4,2.7,12.6,5.9,18.6,9.5c5.9,3.7,11.6,7.8,16.9,12.2l4,3.4
		c1.3,1.2,2.5,2.4,3.8,3.6c1.3,1.2,2.5,2.5,3.7,3.7l1.8,1.9c0.6,0.6,1.2,1.3,1.7,2l1.7,2c0.6,0.7,1.2,1.3,1.7,2l3.2,4.1
		c2,2.8,4.1,5.6,6,8.6c3.8,5.8,7.2,11.9,9.9,18.3c0.8,1.6,1.4,3.2,2,4.8c0.6,1.6,1.3,3.2,1.8,4.8c0.6,1.6,1.1,3.3,1.7,4.9l1.4,5
		c0.4,1.2,0.6,2.4,0.9,3.3c0.3,1,0.5,1.8,0.7,2.6c0.2,0.7,0.4,1.3,0.6,1.7c0.1,0.4,0.3,0.7,0.4,0.8c0.2,0.3,0.3-0.1,0.2-1.2
		c-0.1-1.1-0.5-2.9-1-5.4c-3-12.8-8-25.1-14.7-36.5c-0.8-1.5-1.7-2.9-2.6-4.3c-0.9-1.4-1.8-2.9-2.8-4.2c-1-1.4-1.9-2.8-2.9-4.1
		l-3.1-4l-0.8-1l-0.8-1l-1.7-1.9l-1.7-1.9c-0.6-0.6-1.2-1.2-1.7-1.8c-1.2-1.2-2.3-2.5-3.5-3.7l-3.7-3.5c-5-4.5-10.3-8.8-15.8-12.6
		C925.3-33.9,919.4-37.3,913.4-40.3"/>
	
		<linearGradient id="SVGID_9_" gradientUnits="userSpaceOnUse" x1="98.6221" y1="1418.5168" x2="98.7857" y2="1417.548" gradientTransform="matrix(124.3 0 0 -121.0306 -11465.6992 171871.625)">
		<stop  offset="0" style="stop-color:#00C7FA"/>
		<stop  offset="1" style="stop-color:#55FBDC;stop-opacity:0.32"/>
	</linearGradient>
	<path class="st17" d="M865.2,243.8l-0.3-4.7c-0.2-1.6-0.5-3.1-0.8-4.7c-0.1-0.8-0.3-1.5-0.4-2.3l-0.6-2.3l-0.6-2.3l-0.3-1.1
		l-0.4-1.1l-1.7-4.4c-1.4-2.8-2.7-5.6-4.4-8.2c-3.3-5.3-7-10.4-11.6-14.7c-0.6-0.5-1.1-1.1-1.7-1.6l-1.8-1.5c-1.2-1-2.4-2-3.8-2.8
		c-1.3-0.9-2.7-1.7-4.1-2.5c-1.4-0.7-2.9-1.4-4.3-2c-0.8-0.3-0.7-0.1,0.1,0.2c1.3,0.6,2.5,1.2,3.8,1.9c1.2,0.7,2.4,1.5,3.5,2.3
		l1.7,1.2c0.6,0.4,1.1,0.9,1.6,1.3l3.2,2.7c1,1,1.9,2,2.9,3c0.5,0.5,1,1,1.4,1.5l1.3,1.6c0.9,1.1,1.8,2.1,2.6,3.2l2.4,3.4
		c3,4.5,5.7,9.3,7.5,14.4c1.1,2.5,1.6,5.2,2.3,7.8c0.3,1.3,0.5,2.7,0.7,4c0.2,1.3,0.4,2.7,0.5,4.1l0.2,4.2c0,1.4-0.1,2.8-0.2,4.2
		l-0.1,2.1c0,0.7-0.2,1.4-0.3,2.1l-0.7,4.1c-0.3,1.4-0.7,2.7-1.1,4.1l-0.6,2l-0.7,2c-0.5,1.3-1,2.6-1.5,3.9l-1.9,3.8
		c-2.7,4.9-5.7,9.7-9.6,13.8c-0.5,0.5-0.9,1.1-1.4,1.6l-1.5,1.5c-1,0.9-2,2-3.1,2.8l-3.4,2.6c-0.6,0.4-1.1,0.8-1.8,1.2l-1.8,1.1
		c-2.4,1.5-5,2.6-7.5,3.8c-1.3,0.5-2.7,0.9-4,1.4c-0.7,0.2-1.3,0.5-2,0.6l-2,0.5c-5.4,1.4-11,1.7-16.6,1.7l-4.2-0.2l-1-0.1
		c-0.3,0-0.7-0.1-1-0.1l-2.1-0.3c-2.8-0.3-5.5-1.1-8.2-1.8c-1.3-0.4-2.6-0.9-4-1.4l-2-0.7c-0.6-0.3-1.3-0.6-1.9-0.9
		c-1.3-0.6-2.5-1.2-3.8-1.8l-3.6-2.2c-4.6-3.1-9-6.6-12.6-10.8l-1.4-1.5l-1.3-1.7c-0.8-1.1-1.7-2.2-2.5-3.4c-1.5-2.4-3-4.7-4.1-7.3
		c-1.3-2.5-2.1-5.2-3.1-7.8c-0.4-1.3-0.7-2.7-1-4.1l-0.5-2l-0.3-2.1c-0.2-1.4-0.4-2.8-0.5-4.1l-0.2-4.1c0-0.7-0.1-1.4,0-2.1l0.1-2.1
		c0.1-1.4,0.1-2.8,0.2-4.1c0.6-6.1,2.1-12.1,4.4-17.8l1.9-4.2c0.7-1.4,1.5-2.7,2.3-4c0.7-1.4,1.7-2.6,2.6-3.9l1.4-1.9
		c0.5-0.6,1-1.2,1.5-1.8c0.9-1,1.8-2,2.7-3l3-2.7c0.5-0.4,1-0.9,1.5-1.3l1.6-1.2c1.1-0.8,2.1-1.7,3.2-2.4c2.3-1.4,4.5-3,6.8-4.1
		c1.2-0.6,2.3-1.3,3.5-1.9l3.6-1.7c0.8-0.4,0.2-0.7-0.6-0.3c-1.2,0.5-2.3,1.1-3.5,1.6c-1.2,0.6-2.3,1.2-3.5,1.7
		c-2.4,1.1-4.5,2.5-6.8,3.8c-4.4,2.8-8.6,6-12.1,9.9c-1.9,1.9-3.5,4.2-5.1,6.4c-0.8,1.1-1.4,2.3-2.1,3.5c-0.7,1.2-1.4,2.4-1.9,3.6
		l-1.7,3.7c-0.5,1.3-0.9,2.6-1.4,3.8l-0.7,1.9c-0.2,0.6-0.3,1.3-0.5,2l-1,3.9c-0.3,1.4-0.4,2.8-0.7,4.2l-0.3,2.1
		c-0.1,0.7-0.1,1.4-0.1,2.1l-0.2,4.2c0,1.4,0.1,2.8,0.1,4.2l0.1,2.1c0.1,0.7,0.2,1.4,0.3,2.1l0.6,4.2l1,4.1c0.2,0.7,0.3,1.4,0.5,2.1
		l0.7,2c1.8,5.4,4.6,10.4,7.9,15.1l2.6,3.4c0.9,1.1,1.9,2.1,2.8,3.2l1.5,1.6l1.6,1.4c1.1,0.9,2.1,1.9,3.2,2.8c2.3,1.7,4.5,3.5,7,4.9
		c2.4,1.6,5,2.7,7.5,4c1.3,0.6,2.6,1,4,1.5l2,0.7c0.7,0.2,1.4,0.4,2.1,0.6c1.4,0.4,2.8,0.7,4.1,1.1l4.2,0.7c0.7,0.1,1.4,0.2,2.1,0.3
		l2.1,0.1c1.4,0.1,2.8,0.2,4.3,0.2l4.3-0.1c0.7,0,1.4,0,2.1-0.1l2.1-0.3c5.7-0.6,11.2-2.3,16.5-4.5l3.9-1.8c1.3-0.6,2.5-1.4,3.7-2.1
		l1.8-1.1c0.6-0.4,1.2-0.8,1.8-1.2c1.2-0.8,2.3-1.7,3.5-2.5c2.1-1.9,4.4-3.7,6.3-5.9l1.5-1.6c0.5-0.5,1-1.1,1.4-1.6l2.6-3.4
		c0.5-0.6,0.8-1.2,1.2-1.8l1.1-1.8l1.1-1.9c0.4-0.6,0.6-1.3,1-1.9l1.8-3.9c0.5-1.3,1-2.7,1.4-4.1c0.2-0.7,0.5-1.4,0.7-2l0.5-2.1
		c0.3-1.4,0.7-2.8,0.9-4.2c0.4-2.8,0.9-5.6,0.9-8.5l0.1-2.4l0-1.2C865.3,244.5,865.3,244.1,865.2,243.8"/>
</g>
</svg>
